<svg version="1.1" id="Layer_1" xmlns="http://www.w3.org/2000/svg" xmlns:xlink="http://www.w3.org/1999/xlink" x="0px" y="0px"
	 width="100%" viewBox="0 0 1080 1080" enable-background="new 0 0 1080 1080" xml:space="preserve">
<path fill="#000000" opacity="1.000000" stroke="none" 
	d="
M601.000000,1081.000000 
	C400.689728,1081.000000 200.879456,1081.000000 1.034590,1081.000000 
	C1.034590,721.064575 1.034590,361.129211 1.034590,1.096903 
	C360.893829,1.096903 720.787659,1.096903 1080.840820,1.096903 
	C1080.840820,360.999939 1080.840820,720.999939 1080.840820,1081.000000 
	C921.128723,1081.000000 761.314392,1081.000000 601.000000,1081.000000 
M698.515320,407.230347 
	C685.761536,407.188538 673.007690,407.107208 660.254028,407.136414 
	C657.516968,407.142700 654.780823,407.548859 651.339539,408.322968 
	C651.200439,409.969299 650.939941,411.615723 650.940796,413.261993 
	C650.950256,431.384583 651.042297,449.507202 651.032043,467.629761 
	C650.995544,532.051697 650.913330,596.473572 650.927002,660.895508 
	C650.927551,663.413574 651.734314,665.931580 652.921753,668.685364 
	C668.234497,668.573853 683.547241,668.462341 699.615906,667.804688 
	C699.742249,666.658691 699.978943,665.512756 699.979187,664.366760 
	C699.997681,580.246033 700.001953,496.125275 699.959778,412.004578 
	C699.959106,410.635254 699.371704,409.266235 698.515320,407.230347 
M332.032898,588.719910 
	C331.698975,590.826599 331.531586,592.975891 331.004913,595.033264 
	C326.589539,612.281067 317.655731,625.880188 299.533020,630.721436 
	C293.432831,632.351074 286.679749,632.323364 280.294678,631.928223 
	C268.710907,631.211365 259.694580,625.766968 253.877975,615.380981 
	C248.703003,606.140625 247.172989,596.014160 247.093750,585.756714 
	C246.844070,553.436768 246.992767,521.113708 246.987335,488.791840 
	C246.987030,487.011444 246.987289,485.231049 246.987289,483.451904 
	C230.787216,483.451904 215.087814,483.451904 199.998108,483.451904 
	C199.998108,522.539490 199.679840,561.261841 200.143768,599.974915 
	C200.349564,617.149109 205.035767,633.338013 215.305954,647.578796 
	C223.641708,659.137451 234.998520,666.160278 248.463852,669.915894 
	C259.210480,672.913208 270.103546,673.302368 281.306122,672.167847 
	C299.465363,670.328979 314.403961,662.961975 326.219666,649.160217 
	C328.745728,646.209595 331.055145,643.073486 334.388977,638.851990 
	C335.726685,649.627991 336.909119,659.152893 338.073669,668.533997 
	C352.435547,668.533997 366.031006,668.533997 380.107880,668.533997 
	C380.107880,606.654175 380.107880,545.028809 380.107880,483.117279 
	C364.338013,483.117279 349.210541,483.111725 334.083160,483.147491 
	C333.684723,483.148438 333.287292,483.598816 332.133179,484.313568 
	C332.049164,503.564240 331.916504,522.814880 331.896698,542.065613 
	C331.881012,557.333435 332.003662,572.601318 332.032898,588.719910 
M744.543518,668.739807 
	C756.206970,668.740173 767.871887,668.638184 779.532715,668.814148 
	C782.373169,668.857056 783.769653,667.851440 784.646606,665.310120 
	C791.217712,646.267517 797.847595,627.245239 804.532898,608.003967 
	C837.520630,608.003967 870.498352,607.966064 903.474976,608.144043 
	C904.778564,608.151062 906.764038,609.966248 907.263672,611.358215 
	C913.595154,628.997925 919.822815,646.677612 925.782166,664.445923 
	C926.858215,667.654236 928.044739,668.887085 931.558899,668.831970 
	C945.718323,668.610046 959.883240,668.748047 974.046143,668.728821 
	C975.262512,668.727112 976.478577,668.546265 977.908508,668.431458 
	C973.912964,657.336975 970.163513,646.697632 966.251709,636.118408 
	C960.597656,620.827332 954.720581,605.618286 949.128662,590.304810 
	C940.037231,565.408386 931.160217,540.433716 922.075562,515.534790 
	C916.202332,499.437622 910.030090,483.449585 904.155701,467.352844 
	C897.343933,448.687561 890.635864,429.983276 884.081543,411.226501 
	C883.075012,408.346008 882.059570,406.971558 878.707520,407.014221 
	C863.380737,407.209412 848.048706,407.209442 832.722046,407.009125 
	C829.609070,406.968475 828.239319,408.153351 827.284180,410.791534 
	C817.115173,438.879547 806.989441,466.983704 796.680969,495.020599 
	C784.556824,527.995850 772.185669,560.880371 760.072083,593.859497 
	C752.032959,615.746338 744.239929,637.723694 736.386597,659.678284 
	C735.382751,662.484680 734.680847,665.399170 733.699158,668.739685 
	C737.591614,668.739685 740.578064,668.739685 744.543518,668.739807 
M429.105255,636.500000 
	C429.105499,645.832336 428.990448,655.167603 429.226654,664.493958 
	C429.263336,665.941895 430.884827,668.575928 431.809326,668.591980 
	C446.750122,668.851135 461.696716,668.775208 477.003754,668.775208 
	C477.003754,666.469849 476.990845,664.669128 477.005707,662.868652 
	C477.277527,629.910339 476.700256,596.916382 478.079193,564.004333 
	C479.328979,534.175659 502.409027,513.986877 535.111389,520.844910 
	C543.301941,522.562561 549.392761,527.324158 554.204895,533.962708 
	C561.760010,544.385437 562.658691,556.679260 562.838257,568.733093 
	C563.307312,600.223083 562.996216,631.724731 562.996216,663.221741 
	C562.996216,664.983887 562.996277,666.745972 562.996277,668.783264 
	C577.600952,668.783264 591.575073,668.646851 605.543640,668.868286 
	C609.611877,668.932739 610.965271,667.882263 610.942322,663.600830 
	C610.766235,630.771545 611.177979,597.935730 610.663696,565.113525 
	C610.484009,553.642761 609.186890,541.989319 606.699524,530.797302 
	C601.775818,508.643463 588.993896,492.414368 567.363953,483.896667 
	C552.427124,478.014709 536.941040,477.491180 521.538818,480.453125 
	C511.159668,482.449066 500.907227,486.237030 492.811554,493.408722 
	C486.348602,499.134033 480.868835,505.969177 474.957733,512.306274 
	C473.843567,503.051453 472.659241,493.214142 471.472321,483.354797 
	C457.306396,483.354797 443.393402,483.354797 429.105011,483.354797 
	C429.105011,534.249329 429.105011,584.874695 429.105255,636.500000 
M136.306946,399.242798 
	C128.143631,399.274475 119.951668,399.731598 111.827354,399.184357 
	C106.639885,398.834961 105.902298,400.693054 105.908806,405.253143 
	C106.029182,489.567352 105.997063,573.881775 105.996483,658.196167 
	C105.996475,659.695801 105.986694,661.195374 105.985161,662.695007 
	C105.983101,664.697021 105.984650,666.699097 105.984650,668.446167 
	C122.480835,668.446167 138.067932,668.446167 153.550949,668.446167 
	C153.550949,578.719604 153.550949,489.332214 153.550949,399.242798 
	C147.901062,399.242798 142.576950,399.242798 136.306946,399.242798 
z"/>
<path fill="#5DDFE4" opacity="1.000000" stroke="none" 
	d="
M744.054016,668.739746 
	C740.578064,668.739685 737.591614,668.739685 733.699158,668.739685 
	C734.680847,665.399170 735.382751,662.484680 736.386597,659.678284 
	C744.239929,637.723694 752.032959,615.746338 760.072083,593.859497 
	C772.185669,560.880371 784.556824,527.995850 796.680969,495.020599 
	C806.989441,466.983704 817.115173,438.879547 827.284180,410.791534 
	C828.239319,408.153351 829.609070,406.968475 832.722046,407.009125 
	C848.048706,407.209442 863.380737,407.209412 878.707520,407.014221 
	C882.059570,406.971558 883.075012,408.346008 884.081543,411.226501 
	C890.635864,429.983276 897.343933,448.687561 904.155701,467.352844 
	C910.030090,483.449585 916.202332,499.437622 922.075562,515.534790 
	C931.160217,540.433716 940.037231,565.408386 949.128662,590.304810 
	C954.720581,605.618286 960.597656,620.827332 966.251709,636.118408 
	C970.163513,646.697632 973.912964,657.336975 977.908508,668.431458 
	C976.478577,668.546265 975.262512,668.727112 974.046143,668.728821 
	C959.883240,668.748047 945.718323,668.610046 931.558899,668.831970 
	C928.044739,668.887085 926.858215,667.654236 925.782166,664.445923 
	C919.822815,646.677612 913.595154,628.997925 907.263672,611.358215 
	C906.764038,609.966248 904.778564,608.151062 903.474976,608.144043 
	C870.498352,607.966064 837.520630,608.003967 804.532898,608.003967 
	C797.847595,627.245239 791.217712,646.267517 784.646606,665.310120 
	C783.769653,667.851440 782.373169,668.857056 779.532715,668.814148 
	C767.871887,668.638184 756.206970,668.740173 744.054016,668.739746 
M855.958862,570.945862 
	C864.345154,570.899231 872.731384,570.852661 882.000549,570.974976 
	C885.540955,570.974976 889.081360,570.974976 893.243347,570.974976 
	C880.516724,534.515503 868.209595,499.257874 855.902466,464.000244 
	C855.490112,464.033173 855.077698,464.066132 854.665344,464.099060 
	C842.477356,499.185699 830.289307,534.272339 817.584473,570.846924 
	C821.664917,570.846924 825.266357,570.846924 829.816406,570.963989 
	C838.222656,570.913269 846.628845,570.862549 855.958862,570.945862 
z"/>
<path fill="#FFFCFC" opacity="1.000000" stroke="none" 
	d="
M429.105133,636.000000 
	C429.105011,584.874695 429.105011,534.249329 429.105011,483.354797 
	C443.393402,483.354797 457.306396,483.354797 471.472321,483.354797 
	C472.659241,493.214142 473.843567,503.051453 474.957733,512.306274 
	C480.868835,505.969177 486.348602,499.134033 492.811554,493.408722 
	C500.907227,486.237030 511.159668,482.449066 521.538818,480.453125 
	C536.941040,477.491180 552.427124,478.014709 567.363953,483.896667 
	C588.993896,492.414368 601.775818,508.643463 606.699524,530.797302 
	C609.186890,541.989319 610.484009,553.642761 610.663696,565.113525 
	C611.177979,597.935730 610.766235,630.771545 610.942322,663.600830 
	C610.965271,667.882263 609.611877,668.932739 605.543640,668.868286 
	C591.575073,668.646851 577.600952,668.783264 562.996277,668.783264 
	C562.996277,666.745972 562.996216,664.983887 562.996216,663.221741 
	C562.996216,631.724731 563.307312,600.223083 562.838257,568.733093 
	C562.658691,556.679260 561.760010,544.385437 554.204895,533.962708 
	C549.392761,527.324158 543.301941,522.562561 535.111389,520.844910 
	C502.409027,513.986877 479.328979,534.175659 478.079193,564.004333 
	C476.700256,596.916382 477.277527,629.910339 477.005707,662.868652 
	C476.990845,664.669128 477.003754,666.469849 477.003754,668.775208 
	C461.696716,668.775208 446.750122,668.851135 431.809326,668.591980 
	C430.884827,668.575928 429.263336,665.941895 429.226654,664.493958 
	C428.990448,655.167603 429.105499,645.832336 429.105133,636.000000 
z"/>
<path fill="#FFFCFC" opacity="1.000000" stroke="none" 
	d="
M332.889404,483.839600 
	C333.287292,483.598816 333.684723,483.148438 334.083160,483.147491 
	C349.210541,483.111725 364.338013,483.117279 380.107880,483.117279 
	C380.107880,545.028809 380.107880,606.654175 380.107880,668.533997 
	C366.031006,668.533997 352.435547,668.533997 338.073669,668.533997 
	C336.909119,659.152893 335.726685,649.627991 334.388977,638.851990 
	C331.055145,643.073486 328.745728,646.209595 326.219666,649.160217 
	C314.403961,662.961975 299.465363,670.328979 281.306122,672.167847 
	C270.103546,673.302368 259.210480,672.913208 248.463852,669.915894 
	C234.998520,666.160278 223.641708,659.137451 215.305954,647.578796 
	C205.035767,633.338013 200.349564,617.149109 200.143768,599.974915 
	C199.679840,561.261841 199.998108,522.539490 199.998108,483.451904 
	C215.087814,483.451904 230.787216,483.451904 246.987289,483.451904 
	C246.987289,485.231049 246.987030,487.011444 246.987335,488.791840 
	C246.992767,521.113708 246.844070,553.436768 247.093750,585.756714 
	C247.172989,596.014160 248.703003,606.140625 253.877975,615.380981 
	C259.694580,625.766968 268.710907,631.211365 280.294678,631.928223 
	C286.679749,632.323364 293.432831,632.351074 299.533020,630.721436 
	C317.655731,625.880188 326.589539,612.281067 331.004913,595.033264 
	C331.531586,592.975891 331.698975,590.826599 332.212372,587.937195 
	C332.555695,585.174377 332.859436,583.194397 332.861267,581.214172 
	C332.876068,565.312195 332.813354,549.410217 332.814728,533.508240 
	C332.816162,516.952026 332.862640,500.395813 332.889404,483.839600 
z"/>
<path fill="#FFFDFD" opacity="1.000000" stroke="none" 
	d="
M136.779907,399.242798 
	C142.576950,399.242798 147.901062,399.242798 153.550949,399.242798 
	C153.550949,489.332214 153.550949,578.719604 153.550949,668.446167 
	C138.067932,668.446167 122.480835,668.446167 105.984650,668.446167 
	C105.984650,666.699097 105.983101,664.697021 105.985161,662.695007 
	C105.986694,661.195374 105.996475,659.695801 105.996483,658.196167 
	C105.997063,573.881775 106.029182,489.567352 105.908806,405.253143 
	C105.902298,400.693054 106.639885,398.834961 111.827354,399.184357 
	C119.951668,399.731598 128.143631,399.274475 136.779907,399.242798 
z"/>
<path fill="#5CE0E5" opacity="1.000000" stroke="none" 
	d="
M698.859985,668.350891 
	C683.547241,668.462341 668.234497,668.573853 652.533386,668.055664 
	C652.111267,655.772705 652.049622,644.119446 652.048218,632.466248 
	C652.039551,557.567749 652.044067,482.669281 652.044250,407.770813 
	C654.780823,407.548859 657.516968,407.142700 660.254028,407.136414 
	C673.007690,407.107208 685.761536,407.188538 698.764099,408.039490 
	C699.008423,452.931732 699.020447,497.014832 698.994812,541.097961 
	C698.970093,583.515625 698.906433,625.933228 698.859985,668.350891 
z"/>
<path fill="#C25555" opacity="1.000000" stroke="none" 
	d="
M651.691895,408.046875 
	C652.044067,482.669281 652.039551,557.567749 652.048218,632.466248 
	C652.049622,644.119446 652.111267,655.772705 652.155212,667.937744 
	C651.734314,665.931580 650.927551,663.413574 650.927002,660.895508 
	C650.913330,596.473572 650.995544,532.051697 651.032043,467.629761 
	C651.042297,449.507202 650.950256,431.384583 650.940796,413.261993 
	C650.939941,411.615723 651.200439,409.969299 651.691895,408.046875 
z"/>
<path fill="#BA6669" opacity="1.000000" stroke="none" 
	d="
M699.237915,668.077759 
	C698.906433,625.933228 698.970093,583.515625 698.994812,541.097961 
	C699.020447,497.014832 699.008423,452.931732 699.035522,408.372864 
	C699.371704,409.266235 699.959106,410.635254 699.959778,412.004578 
	C700.001953,496.125275 699.997681,580.246033 699.979187,664.366760 
	C699.978943,665.512756 699.742249,666.658691 699.237915,668.077759 
z"/>
<path fill="#C25555" opacity="1.000000" stroke="none" 
	d="
M332.511292,484.076599 
	C332.862640,500.395813 332.816162,516.952026 332.814728,533.508240 
	C332.813354,549.410217 332.876068,565.312195 332.861267,581.214172 
	C332.859436,583.194397 332.555695,585.174377 332.228394,587.511841 
	C332.003662,572.601318 331.881012,557.333435 331.896698,542.065613 
	C331.916504,522.814880 332.049164,503.564240 332.511292,484.076599 
z"/>
<path fill="#000000" opacity="1.000000" stroke="none" 
	d="
M828.867798,570.846924 
	C825.266357,570.846924 821.664917,570.846924 817.584473,570.846924 
	C830.289307,534.272339 842.477356,499.185699 854.665344,464.099060 
	C855.077698,464.066132 855.490112,464.033173 855.902466,464.000244 
	C868.209595,499.257874 880.516724,534.515503 893.243347,570.974976 
	C889.081360,570.974976 885.540955,570.974976 881.306885,570.534790 
	C872.075195,570.094299 863.537048,570.093994 854.537964,570.003174 
	C850.131042,569.902527 846.180115,569.763245 842.240540,569.916382 
	C837.777588,570.089783 833.324951,570.525330 828.867798,570.846924 
z"/>
<path fill="#BA6669" opacity="1.000000" stroke="none" 
	d="
M829.342102,570.905457 
	C833.324951,570.525330 837.777588,570.089783 842.240540,569.916382 
	C846.180115,569.763245 850.131042,569.902527 854.546204,570.182739 
	C855.015442,570.452820 855.035095,570.811890 855.035095,570.811890 
	C846.628845,570.862549 838.222656,570.913269 829.342102,570.905457 
z"/>
<path fill="#C25555" opacity="1.000000" stroke="none" 
	d="
M855.496948,570.878906 
	C855.035095,570.811890 855.015442,570.452820 855.007202,570.273254 
	C863.537048,570.093994 872.075195,570.094299 880.865479,570.450317 
	C872.731384,570.852661 864.345154,570.899231 855.496948,570.878906 
z"/>
</svg>